Simulation
nRows=38
nColumns=15
endheader
time  TH_x TH_y TH_z SC_y  SC_z  SC_x  AC_y  AC_z  AC_x  GH_y  GH_z  GH_yy  EL_x  PS_y
0.0  0.000000  0.000000  0.000000  -7.51407330372638  -0.5295384968905069  3.05191684520695  52.11570053480201  3.1299682938759132  -17.085353516119334  46.86170994063809  14.16207986327158  -20.14945112466549  22.638019712586775  120.000000
0.02789999999999999  0.000000  0.000000  0.000000  -7.7722380295281095  -0.31063688205316375  3.2658148408035186  52.13064225606286  3.168991569881321  -17.160231627727068  46.53253513322601  14.124999051753232  -20.30757292386578  22.592968681847683  120.000000
0.05579999999999998  0.000000  0.000000  0.000000  -7.946080541440554  -0.2505506081553164  3.4692170641096514  52.201888235396005  3.1243095843078925  -17.126540238506472  46.300961671006014  14.171822732619999  -20.435617278116794  22.48935911883501  120.000000
0.08369999999999997  0.000000  0.000000  0.000000  -8.040808913478493  -0.3150716132750507  3.6382917924323412  52.32454253962694  3.0244305831700116  -17.07992974748398  46.177556791010886  14.31124332096566  -20.54795203800792  22.395072385928188  120.000000
0.11159999999999996  0.000000  0.000000  0.000000  -8.08474044667201  -0.45873127675519043  3.777337743812637  52.48585591073425  2.907856955502116  -17.087239453793114  46.15259654222768  14.563250742558964  -20.67519813107197  22.33918866234987  120.000000
0.13949999999999996  0.000000  0.000000  0.000000  -8.108547399296741  -0.642029443186754  3.9034155135544015  52.65913589012275  2.8188031893625887  -17.164663049786707  46.19931768170358  14.934465680861662  -20.854174474927618  22.309887769179955  120.000000
0.16739999999999994  0.000000  0.000000  0.000000  -8.127503860053432  -0.8350479340363371  4.033387616615207  52.82948331166379  2.7753935929998748  -17.291103632443043  46.293689058040044  15.42205024188648  -21.114434270917435  22.287957467952985  120.000000
0.19529999999999995  0.000000  0.000000  0.000000  -8.138234557413128  -1.01865871662026  4.176143320681749  52.999372460778716  2.7725457152261277  -17.43869250245898  46.4203883413264  16.01968173339344  -21.475683311188973  22.25839608536099  120.000000
0.22319999999999993  0.000000  0.000000  0.000000  -8.132102315923161  -1.1770469115352735  4.33534842532822  53.17601014217494  2.796926878045373  -17.584618787693305  46.57262064807291  16.721488393778614  -21.94863080273802  22.214654322144668  120.000000
0.25109999999999993  0.000000  0.000000  0.000000  -8.100263727641583  -1.3008876036482124  4.513106179824165  53.36326999518473  2.8391322473898746  -17.715602287742747  46.74759800445357  17.524549008251753  -22.53859735832714  22.15248281266745  120.000000
0.2789999999999999  0.000000  0.000000  0.000000  -8.038839599200527  -1.3828834343374283  4.7099480425125595  53.56310566622967  2.8933407391272854  -17.82448247407236  46.94493403724921  18.431537948857397  -23.24657597373891  22.070129104325886  120.000000
0.3068999999999999  0.000000  0.000000  0.000000  -7.9481423753974445  -1.4208212689647015  4.925954334639798  53.774931972434445  2.95778003956268  -17.907938034111968  47.16379408587255  19.44825399618284  -24.070176773378346  21.96439077310909  120.000000
0.3347999999999999  0.000000  0.000000  0.000000  -7.834390910524011  -1.4137475774916477  5.160614192210419  53.998185244026345  3.0318796505665806  -17.963249907334028  47.40212260970405  20.58280242840559  -25.00306715230641  21.832414941568082  120.000000
0.36269999999999986  0.000000  0.000000  0.000000  -7.707169632102845  -1.3621943777911363  5.412395253520064  54.23276088594614  3.117122154256194  -17.988401521846033  47.655430525392745  21.842640810220242  -26.03476622494748  21.670791046959845  120.000000
0.3905999999999999  0.000000  0.000000  0.000000  -7.579156659805823  -1.2661580009020514  5.678845506343719  54.4799933178965  3.2151054255747193  -17.981049581970815  47.91700483941866  23.233260430827332  -27.1504912873909  21.4775974378872  120.000000
0.41849999999999987  0.000000  0.000000  0.000000  -7.462514530807588  -1.1274565532700271  5.959205702256091  54.74150349651981  3.3267156982001342  -17.93946588264526  48.17808114123317  24.755098975438404  -28.331375131364  21.252438427813402  120.000000
0.44639999999999985  0.000000  0.000000  0.000000  -7.368253090666555  -0.9480673238042823  6.253818213024054  55.019745728375966  3.4521840077935724  -17.861635379502566  48.428359976992574  26.403349298514875  -29.555549142506994  20.99769571392842  120.000000
0.47429999999999983  0.000000  0.000000  0.000000  -7.303716197555074  -0.7303428763653602  6.563662729893994  55.317836636804955  3.5924453547799766  -17.74660263937152  48.65634595021576  28.16752202618799  -30.799838346177648  20.717753173100757  120.000000
0.5021999999999999  0.000000  0.000000  0.000000  -7.273524991246979  -0.47674706892720337  6.889979620655446  55.63949781544575  3.748959770802471  -17.593968439075944  48.8501345571684  30.032684039700005  -32.041961305358555  20.41891798674869  120.000000
0.5300999999999998  0.000000  0.000000  0.000000  -7.279729483526869  -0.19122264788392446  7.234354207310159  55.988256446336415  3.9240983084284258  -17.40347690705936  48.998385061069015  31.98013986647704  -33.262446115607396  20.108013495121  120.000000
0.5579999999999998  0.000000  0.000000  0.000000  -7.324470731363064  0.12125527431769918  7.598197934092334  56.367576150975566  4.120935812870321  -17.17436592701363  49.09153129079015  33.98921500719687  -34.44613746498493  19.791954413984104  120.000000
0.5858999999999998  0.000000  0.000000  0.000000  -7.410989993726798  0.45539146903609246  7.981990602984381  56.78084546908405  4.344269082542526  -16.905487822958126  49.12296356838289  36.03821180475307  -35.58275036373332  19.477086097082342  120.000000
0.6137999999999998  0.000000  0.000000  0.000000  -7.545745652071511  0.8069790517583428  8.386438478455858  57.23153341725466  4.599526402403327  -16.59592846829556  49.08976497174974  38.105779252036484  -36.66695944959395  19.16934329097968  120.000000
0.6416999999999998  0.000000  0.000000  0.000000  -7.738286644966422  1.1736469764170094  8.814317759172113  57.722496079086724  4.891342843454238  -16.24623500772397  48.992751925177764  40.1708265526608  -37.69776962902824  18.8739976767068  120.000000
0.6695999999999998  0.000000  0.000000  0.000000  -8.00089263035064  1.5552566532342758  9.270056995923573  58.25545884770231  5.2228599096127155  -15.857583613020374  48.83575900848631  42.212607834604135  -38.67761824386459  18.595966025411865  120.000000
0.6974999999999998  0.000000  0.000000  0.000000  -8.345831631284403  1.953251036793944  9.759449626936076  58.830088739450666  5.5951592933001635  -15.43048617120591  48.624348183433135  44.21028456964842  -39.611173969030446  18.33997885234782  120.000000
0.7253999999999997  0.000000  0.000000  0.000000  -8.783036459400769  2.370209456986879  10.288544192537652  59.44388110008205  6.006439166129061  -14.963399459832507  48.364195608672276  46.14329548891062  -40.504191075112495  18.111335190510243  120.000000
0.7532999999999997  0.000000  0.000000  0.000000  -9.316748445536172  2.8092873528236724  10.862318240052266  60.09252028076146  6.451132471109847  -14.452284431667508  48.05978075454333  47.991529602023206  -41.362413492302856  17.916438223289834  120.000000
0.7811999999999998  0.000000  0.000000  0.000000  -9.944092277365105  3.2738204173738703  11.48390490748933  60.77091509929471  6.919016477803738  -13.890960068031971  47.71341972187572  49.736404521800644  -42.190810488469516  17.76337728167575  120.000000
0.8090999999999997  0.000000  0.000000  0.000000  -10.655269099732914  3.7666777687462205  12.155389574844476  61.47308273208037  7.396191525197207  -13.272165655705882  47.324646950287764  51.36189338003482  -42.99285969995414  17.661800105877905  120.000000
0.8369999999999997  0.000000  0.000000  0.000000  -11.435981348274415  4.28956110042125  12.878382805503621  62.19236738636878  7.866894916275179  -12.588701949450485  46.89050845266894  52.85590748627784  -43.770035476177796  17.622393958370687  120.000000
0.8648999999999997  0.000000  0.000000  0.000000  -12.26951941263035  4.842509928077319  13.654329850379723  62.92208937814397  8.315456146783037  -11.83541063492525  46.40652594175001  54.211027399313124  -44.52154753863219  17.655683211415756  120.000000
0.8927999999999997  0.000000  0.000000  0.000000  -13.139750905330956  5.423627617594078  14.484835745977577  63.65633038971705  8.727897902858725  -11.010903489615288  45.86759778918101  55.425186894151054  -45.24440911632908  17.77061270972911  120.000000
0.9206999999999997  0.000000  0.000000  0.000000  -14.032906873963213  6.028812488735001  15.37219934707222  64.39000610334617  9.09288616783135  -10.118552782240307  45.268677680402455  56.50152886889921  -45.933836962727966  17.972948452732624  120.000000
0.9485999999999997  0.000000  0.000000  0.000000  -14.93879844360216  6.651835343435531  16.319445760367913  65.11901923611283  9.401515537366523  -9.166271035885584  44.60525634187189  57.448085411355756  -46.58404546403574  18.264366424324752  120.000000
0.9764999999999997  0.000000  0.000000  0.000000  -15.85029275711455  7.284707103652595  17.330000402898193  65.83981072752469  9.646431137205113  -8.16546528601247  43.873826053461826  58.27669279287531  -47.189360314209495  18.64204446204267  120.000000
1.0043999999999997  0.000000  0.000000  0.000000  -16.76241552500947  7.918548752318484  18.406680370777295  66.54930137744321  9.820789075879926  -7.129924611796308  43.07263093433245  59.00177729258552  -47.745376837504026  19.098791183322707  120.000000
1.0322999999999996  0.000000  0.000000  0.000000  -17.670712663541305  8.544349492093104  19.550757233539485  67.24443104876796  9.91780601188803  -6.074747632408743  42.202821774342226  59.63876998496374  -48.24983541533928  19.623299888416057  120.000000
